<?xml version="1.0" encoding="UTF-8"?>
<svg version="1.1" xmlns="http://www.w3.org/2000/svg" width="500" height="500">
<path d="M0 0 C1.48626892 0.00164658 1.48626892 0.00164658 3.00256348 0.00332642 C18.59229122 0.05285605 32.99641948 1.24258625 48.0625 5.5 C49.59565381 5.89077891 51.12948284 6.27892092 52.6640625 6.6640625 C76.88288685 12.99846783 99.4649861 25.08193765 119.0625 40.5 C119.99964844 41.21414062 120.93679688 41.92828125 121.90234375 42.6640625 C134.59897518 52.62001138 145.78245891 64.31807943 155.0625 77.5 C155.46774902 78.0662207 155.87299805 78.63244141 156.29052734 79.21582031 C163.56322766 89.44013117 169.52746425 100.2508693 175.0625 111.5 C175.55492187 112.5003125 176.04734375 113.500625 176.5546875 114.53125 C197.6231329 161.35001756 195.51967133 217.33120404 177.87548828 264.65820312 C168.9148281 287.59051462 154.46901009 308.29488648 137.51171875 325.98779297 C136.17652292 327.38102123 134.85330518 328.78570251 133.53125 330.19140625 C127.24709534 336.71019655 120.39802216 342.23536957 113.0625 347.5 C112.48902832 347.9125 111.91555664 348.325 111.32470703 348.75 C90.05376448 363.87180309 66.56012417 374.0062427 41.0625 379.5 C39.85658203 379.76586914 38.65066406 380.03173828 37.40820312 380.30566406 C26.20843759 382.53715387 15.31234649 382.99478555 3.90795898 382.94604492 C0.89561946 382.93755809 -2.11480025 382.96638134 -5.12695312 382.99804688 C-24.73974899 383.06840525 -43.36187242 379.71325876 -61.9375 373.5 C-62.8980127 373.18772461 -62.8980127 373.18772461 -63.87792969 372.86914062 C-85.91819701 365.60802873 -105.39812084 353.32854006 -123.32324219 338.80712891 C-124.43700937 337.90526722 -125.55794435 337.01221074 -126.68457031 336.12646484 C-128.13941093 334.96267758 -129.54352846 333.73604425 -130.9375 332.5 C-130.9375 331.84 -130.9375 331.18 -130.9375 330.5 C-131.576875 330.231875 -132.21625 329.96375 -132.875 329.6875 C-134.9375 328.5 -134.9375 328.5 -135.9375 325.5 C-136.9275 325.17 -137.9175 324.84 -138.9375 324.5 C-138.9375 323.84 -138.9375 323.18 -138.9375 322.5 C-139.5975 322.5 -140.2575 322.5 -140.9375 322.5 C-144.19464194 319.05673567 -147.03267385 315.24209956 -149.9375 311.5 C-150.37835938 310.93796875 -150.81921875 310.3759375 -151.2734375 309.796875 C-162.58620457 295.27991378 -171.00605084 279.51544875 -177.9375 262.5 C-178.25936279 261.72712646 -178.58122559 260.95425293 -178.9128418 260.15795898 C-198.06965959 213.49135062 -195.0280672 161.36211486 -176.37695312 115.08129883 C-163.68899685 84.79559463 -141.93946646 58.22923475 -115.9375 38.5 C-115.00679688 37.78585938 -114.07609375 37.07171875 -113.1171875 36.3359375 C-90.51664379 19.4023958 -65.42374576 9.35015118 -37.9375 3.5 C-36.79692139 3.23670898 -35.65634277 2.97341797 -34.48120117 2.70214844 C-22.97892374 0.2457919 -11.73490428 -0.05350521 0 0 Z " fill="#838282" transform="translate(247.9375,48.5)"/>
<path d="M0 0 C6.625 -0.25 6.625 -0.25 10 2 C10.50730896 3.7749176 10.50730896 3.7749176 10.69311523 5.94750977 C10.76828873 6.76493149 10.84346222 7.58235321 10.9209137 8.42454529 C10.98697311 9.31698441 11.05303253 10.20942352 11.12109375 11.12890625 C11.19943954 12.06126602 11.27778534 12.99362579 11.35850525 13.95423889 C12.23489802 24.93276018 12.65710371 35.93350776 13.0625 46.9375 C13.21698229 50.98840459 13.37494501 55.03916188 13.53515625 59.08984375 C13.57295197 60.05613708 13.61074768 61.02243042 13.64968872 62.01800537 C13.90227453 68.24665953 14.29756866 74.451842 14.77905273 80.66723633 C15.26063306 87.93138339 15.37279737 95.21675512 15.55224609 102.49365234 C15.67746219 111.32453922 15.67746219 111.32453922 16.52734375 120.1015625 C17.24989544 126.06112109 17.10365855 132.00351569 17.0625 138 C17.05798828 139.25167969 17.05347656 140.50335938 17.04882812 141.79296875 C17.03711415 144.86202941 17.02071073 147.93098907 17 151 C17.66 151 18.32 151 19 151 C18.95875 150.154375 18.9175 149.30875 18.875 148.4375 C18.98540426 145.40138276 19.45896547 143.00079436 20.36328125 140.12109375 C21.1754532 137.4155148 21.83167842 134.68202872 22.5 131.9375 C23.50300478 127.88034567 24.67855314 123.96434057 26 120 C26.72590776 116.93874327 27.43735369 113.87565714 28.12109375 110.8046875 C29.04599785 107.85321575 29.89156295 106.24477119 32 104 C34.17651367 103.54589844 34.17651367 103.54589844 36.66796875 103.609375 C38.00698242 103.62871094 38.00698242 103.62871094 39.37304688 103.6484375 C40.30181641 103.68195313 41.23058594 103.71546875 42.1875 103.75 C43.12787109 103.76804687 44.06824219 103.78609375 45.03710938 103.8046875 C47.35909889 103.8518345 49.6790369 103.91761769 52 104 C52.03569092 103.33540771 52.07138184 102.67081543 52.1081543 101.98608398 C52.45256127 96.25327872 53.74454936 91.80457 56.0234375 86.56640625 C57.37114359 83.02463463 57.90405116 79.47849108 58.5078125 75.75 C60.72952203 63.33663881 60.72952203 63.33663881 65 60 C70.09638554 59.36295181 70.09638554 59.36295181 72.5625 61.1015625 C74.61184601 63.80803576 75.1685701 66.4658519 76 69.75 C76.17096191 70.42119873 76.34192383 71.09239746 76.51806641 71.78393555 C77.89873614 77.31502532 79.00898656 82.88837347 80.07421875 88.48828125 C80.80338374 92.17389455 81.65204341 95.82503998 82.51953125 99.48046875 C82.79297363 100.63506592 83.06641602 101.78966309 83.34814453 102.97924805 C83.89861834 105.28825991 84.455371 107.59578585 85.01904297 109.90161133 C86.32534081 115.39506764 87.36539367 120.34857783 87 126 C87.66 126 88.32 126 89 126 C89.391875 124.824375 89.78375 123.64875 90.1875 122.4375 C90.46464844 121.61507812 90.74179688 120.79265625 91.02734375 119.9453125 C91.72851749 117.82207958 92.40525303 115.69072099 93.06640625 113.5546875 C99.83005725 92.16994275 99.83005725 92.16994275 105 87 C107.81428506 86.88881348 110.60425698 86.84260198 113.41943359 86.83886719 C114.30233566 86.83390228 115.18523773 86.82893738 116.09489441 86.82382202 C119.02941656 86.80916046 121.96388467 86.80239176 124.8984375 86.796875 C126.93006391 86.79112681 128.96169029 86.78536904 130.99331665 86.77960205 C135.25889337 86.76908067 139.52445118 86.76324546 143.79003906 86.75976562 C149.26368088 86.75427867 154.73707422 86.73025108 160.21063805 86.70179367 C164.40901425 86.68319659 168.60733025 86.67796326 172.80574417 86.67642975 C174.82402531 86.67339603 176.8423052 86.66534343 178.86054611 86.65224457 C181.68115033 86.63524527 184.5011431 86.63704929 187.32177734 86.64355469 C188.16033768 86.6343399 188.99889801 86.62512512 189.86286926 86.6156311 C195.55952006 86.65692065 195.55952006 86.65692065 197.71460915 88.33546829 C199.69508918 90.90011375 199.39182007 92.86543945 199 96 C197.9797821 97.66621399 197.9797821 97.66621399 196 99 C193.23965596 99.28053738 190.7076749 99.37899239 187.94848633 99.34057617 C187.12874832 99.34101425 186.30901031 99.34145233 185.46443176 99.34190369 C182.75338977 99.33981271 180.04296528 99.31646736 177.33203125 99.29296875 C175.45302163 99.28737389 173.57400763 99.28310327 171.69499207 99.28010559 C166.74813771 99.26864817 161.80154737 99.23917326 156.85479736 99.20599365 C151.80753145 99.17531211 146.7602229 99.16160435 141.71289062 99.14648438 C131.80847772 99.11430444 121.90426081 99.06309722 112 99 C111.86424561 99.58378418 111.72849121 100.16756836 111.58862305 100.76904297 C110.64782652 104.33478278 109.18070269 107.70613643 107.8125 111.125 C104.9486363 118.36757819 102.35718667 125.66499445 99.9543457 133.07275391 C98.75351388 136.77302596 97.4735698 140.40009483 96 144 C95.690625 144.99 95.38125 145.98 95.0625 147 C92.49367089 154.25316456 92.49367089 154.25316456 89 156 C86.0625 156.3125 86.0625 156.3125 83 156 C80.36319414 153.1951624 79.36986562 150.50466785 78.4375 146.8125 C78.19 145.83667969 77.9425 144.86085938 77.6875 143.85546875 C77.3471875 142.44201172 77.3471875 142.44201172 77 141 C76.814375 140.25363281 76.62875 139.50726563 76.4375 138.73828125 C75.42819654 134.47239708 74.73377258 130.21581321 74.125 125.875 C73.19721183 119.54377352 71.59990881 113.5599049 69.8828125 107.41015625 C68.89272623 103.58561946 68.3921258 99.92125795 68 96 C67.67 95.67 67.34 95.34 67 95 C66.73445312 96.02480469 66.46890625 97.04960937 66.1953125 98.10546875 C65.83870972 99.46618989 65.48192949 100.82686453 65.125 102.1875 C64.95097656 102.86103516 64.77695313 103.53457031 64.59765625 104.22851562 C61.92224482 114.38517012 61.92224482 114.38517012 58 117 C56.00708008 117.22705078 56.00708008 117.22705078 53.76953125 117.1953125 C52.96708984 117.18886719 52.16464844 117.18242187 51.33789062 117.17578125 C50.08782227 117.15064453 50.08782227 117.15064453 48.8125 117.125 C47.5450293 117.11146484 47.5450293 117.11146484 46.25195312 117.09765625 C44.16784757 117.07410703 42.08388783 117.03823647 40 117 C39.79246094 117.92554688 39.58492188 118.85109375 39.37109375 119.8046875 C37.01670956 130.12694857 34.33987168 140.34708627 31.55053711 150.56005859 C30.14941155 155.6965983 28.77860915 160.83536653 27.5 166.00390625 C25.95269762 172.23966271 24.29952624 178.43949192 22.5625 184.625 C22.27568359 185.69878906 21.98886719 186.77257812 21.69335938 187.87890625 C21.40396484 188.90113281 21.11457031 189.92335938 20.81640625 190.9765625 C20.56318604 191.89518066 20.30996582 192.81379883 20.04907227 193.76025391 C19 196 19 196 17.05053711 197.32958984 C14.34217475 198.21507181 12.69288686 197.85038532 10 197 C6.6958312 193.6958312 6.88415334 189.60447499 6.75390625 185.10546875 C6.72103516 184.14705078 6.68816406 183.18863281 6.65429688 182.20117188 C6.59536118 180.26632542 6.53793822 178.33143196 6.48242188 176.39648438 C6.23021069 169.13946431 5.66598934 161.94300982 5.02734375 154.7109375 C4.03671864 143.3429991 3.49899586 131.9899592 3.1083374 120.58743286 C2.53284696 103.85492667 1.83684631 87.14732285 0.609375 70.44897461 C0.1156033 63.61630919 -0.10823548 56.85061838 0 50 C-0.66 50 -1.32 50 -2 50 C-2.12955078 50.82564453 -2.12955078 50.82564453 -2.26171875 51.66796875 C-3.39955366 58.40102857 -4.87928139 65.04169474 -6.4375 71.6875 C-6.64270264 72.57783936 -6.84790527 73.46817871 -7.05932617 74.38549805 C-8.34357996 79.78820357 -10.00275896 84.82136135 -12 90 C-12.51744435 91.86479946 -13.00015672 93.73980597 -13.4375 95.625 C-14.57166798 100.28637101 -15.74333138 104.93241676 -17 109.5625 C-17.309375 110.71878906 -17.61875 111.87507813 -17.9375 113.06640625 C-19.00437292 116.01207375 -19.59487901 117.10634619 -22 119 C-24.01098633 119.38768005 -24.01098633 119.38768005 -26.33203125 119.40405273 C-27.20303467 119.41673691 -28.07403809 119.42942108 -28.97143555 119.44248962 C-30.37776245 119.43808617 -30.37776245 119.43808617 -31.8125 119.43359375 C-33.26039917 119.44145653 -33.26039917 119.44145653 -34.73754883 119.44947815 C-36.77847328 119.45590192 -38.81943475 119.45455677 -40.86035156 119.44604492 C-43.98829824 119.43753185 -47.1144212 119.46629665 -50.2421875 119.49804688 C-52.22395778 119.49965884 -54.20573131 119.49908146 -56.1875 119.49609375 C-57.12505127 119.50732773 -58.06260254 119.51856171 -59.02856445 119.53013611 C-65.48549162 119.46059319 -65.48549162 119.46059319 -68.08984375 117.12915039 C-69.2139468 114.49950912 -69.43553543 112.83098031 -69 110 C-68.00073242 108.3659668 -68.00073242 108.3659668 -66 107 C-63.12917843 106.73836832 -60.48013507 106.65111366 -57.61328125 106.70703125 C-56.38776802 106.71339851 -56.38776802 106.71339851 -55.13749695 106.71989441 C-52.52882893 106.73668309 -49.92093438 106.77433481 -47.3125 106.8125 C-45.54363095 106.82754663 -43.77474979 106.84123508 -42.00585938 106.85351562 C-37.67027504 106.88658714 -33.33526864 106.9383701 -29 107 C-28.85216064 105.7529126 -28.70432129 104.5058252 -28.55200195 103.22094727 C-28.09276036 99.34705048 -27.2336262 95.70105362 -26.1875 91.9375 C-25.8227753 90.60941381 -25.45819568 89.28128778 -25.09375 87.953125 C-24.81724609 86.95635742 -24.81724609 86.95635742 -24.53515625 85.93945312 C-23.73170192 83.02766426 -22.96081206 80.10741968 -22.1875 77.1875 C-20.91272154 72.40078244 -19.62688385 67.61726579 -18.33203125 62.8359375 C-17.72117472 60.57817354 -17.11050189 58.32035988 -16.5 56.0625 C-16.19288086 54.9269165 -15.88576172 53.79133301 -15.56933594 52.62133789 C-13.95735711 46.63701799 -12.39886075 40.64776292 -10.9375 34.625 C-9.4304231 28.51224411 -7.73044132 22.47254599 -5.9375 16.4375 C-5.69185303 15.6036377 -5.44620605 14.76977539 -5.19311523 13.91064453 C-3.74606865 9.11302781 -2.06557548 4.56633155 0 0 Z " fill="#B25856" transform="translate(143,115)"/>
<path d="M0 0 C0.33 0 0.66 0 1 0 C1.81822196 16.87961594 -1.65324291 33.07348953 -7 49 C-7.25265625 49.763125 -7.5053125 50.52625 -7.765625 51.3125 C-16.79679783 78.22893667 -31.93008342 102.01594019 -51.55078125 122.48779297 C-52.88597708 123.88102123 -54.20919482 125.28570251 -55.53125 126.69140625 C-61.81540466 133.21019655 -68.66447784 138.73536957 -76 144 C-76.57347168 144.4125 -77.14694336 144.825 -77.73779297 145.25 C-99.00873552 160.37180309 -122.50237583 170.5062427 -148 176 C-149.20591797 176.26586914 -150.41183594 176.53173828 -151.65429688 176.80566406 C-162.85406241 179.03715387 -173.75015351 179.49478555 -185.15454102 179.44604492 C-188.16688054 179.43755809 -191.17730025 179.46638134 -194.18945312 179.49804688 C-213.80224899 179.56840525 -232.42437242 176.21325876 -251 170 C-251.6403418 169.79181641 -252.28068359 169.58363281 -252.94042969 169.36914062 C-274.98069701 162.10802873 -294.46062084 149.82854006 -312.38574219 135.30712891 C-313.49950937 134.40526722 -314.62044435 133.51221074 -315.74707031 132.62646484 C-317.20191093 131.46267758 -318.60602846 130.23604425 -320 129 C-320 128.34 -320 127.68 -320 127 C-320.639375 126.731875 -321.27875 126.46375 -321.9375 126.1875 C-324 125 -324 125 -325 122 C-325.99 121.67 -326.98 121.34 -328 121 C-328 120.34 -328 119.68 -328 119 C-328.66 119 -329.32 119 -330 119 C-333.25714194 115.55673567 -336.09517385 111.74209956 -339 108 C-339.44085938 107.43796875 -339.88171875 106.8759375 -340.3359375 106.296875 C-351.64954352 91.77883722 -360.06490357 76.0149363 -367 59 C-367.48170654 57.84830322 -367.48170654 57.84830322 -367.97314453 56.67333984 C-370.4124624 50.74961356 -372.39379475 44.79092086 -374.125 38.625 C-374.38361816 37.7067041 -374.64223633 36.7884082 -374.90869141 35.84228516 C-377.7735133 25.46624117 -379.38232252 15.78999118 -379 5 C-378.67 5 -378.34 5 -378 5 C-377.87471924 5.73412109 -377.74943848 6.46824219 -377.62036133 7.22460938 C-375.21587452 21.15645674 -372.67521433 34.64447107 -368 48 C-367.69578125 49.01191406 -367.3915625 50.02382813 -367.078125 51.06640625 C-364.39607265 59.90071026 -360.3046984 67.87113616 -356 76 C-355.61005859 76.74652832 -355.22011719 77.49305664 -354.81835938 78.26220703 C-349.37437625 88.637876 -343.506878 97.99230956 -336 107 C-335.08067618 108.12365457 -334.16140646 109.2473534 -333.2421875 110.37109375 C-305.6771197 143.76917398 -267.26268345 165.67255678 -225 174 C-223.91709686 174.24113274 -223.91709686 174.24113274 -222.81231689 174.48713684 C-216.80505727 175.78362993 -211.01164773 176.39660312 -204.875 176.58984375 C-203.46915649 176.63973953 -203.46915649 176.63973953 -202.03491211 176.69064331 C-199.02347798 176.78827527 -196.01217455 176.86647906 -193 176.9375 C-191.97310059 176.96290863 -190.94620117 176.98831726 -189.88818359 177.01449585 C-173.60258451 177.37009952 -158.77396097 176.3712532 -143 172 C-141.68087333 171.67996786 -140.36066867 171.36432095 -139.0390625 171.0546875 C-121.66577545 166.64179308 -105.14641436 158.79533874 -89.875 149.5625 C-89.12202637 149.10770264 -88.36905273 148.65290527 -87.59326172 148.18432617 C-83.0610142 145.39926554 -78.80311928 142.42221038 -74.63330078 139.11694336 C-73 138 -73 138 -71 138 C-71 137.34 -71 136.68 -71 136 C-69.32348633 134.55249023 -69.32348633 134.55249023 -67.01953125 132.87109375 C-49.39988586 119.52976695 -35.80958237 101.94266472 -25.02929688 82.80615234 C-24.04466713 81.07837937 -23.01544558 79.37624844 -21.984375 77.67578125 C-8.39314227 54.21217671 -3.21955566 26.58358921 0 0 Z " fill="#545453" transform="translate(437,252)"/>
<path d="M0 0 C3.82948363 -0.63355428 7.18670189 -0.80918793 11 0 C14.34016413 2.85280922 16.52206176 6.40062331 19 10 C20.55526738 11.79553294 22.1385569 13.56720739 23.75 15.3125 C26.6523844 18.47067008 29.30883634 21.63604543 32 25 C32.33 17.74 32.66 10.48 33 3 C31.68 2.67 30.36 2.34 29 2 C29 1.67 29 1.34 29 1 C32.63 1 36.26 1 40 1 C39.67 1.66 39.34 2.32 39 3 C38.01 3 37.02 3 36 3 C36 14.22 36 25.44 36 37 C31 37 31 37 28.96484375 35.0859375 C28.29582031 34.19132812 27.62679687 33.29671875 26.9375 32.375 C26.17308594 31.385 25.40867188 30.395 24.62109375 29.375 C24.20714355 28.83488281 23.79319336 28.29476563 23.36669922 27.73828125 C20.84579449 24.53198585 18.16547256 21.46116907 15.5 18.375 C14.97140381 17.75931152 14.44280762 17.14362305 13.89819336 16.50927734 C11.51757284 13.69210472 11.51757284 13.69210472 9 11 C8.67 18.59 8.34 26.18 8 34 C9.32 34 10.64 34 12 34 C12 34.99 12 35.98 12 37 C7.71 37 3.42 37 -1 37 C-1 36.01 -1 35.02 -1 34 C0.65 34 2.3 34 4 34 C4 23.77 4 13.54 4 3 C2.68 2.67 1.36 2.34 0 2 C0 1.34 0 0.68 0 0 Z " fill="#1A1A1A" transform="translate(179,279)"/>
<path d="M0 0 C3.52054914 -0.11709643 7.04059112 -0.1875469 10.5625 -0.25 C11.55314453 -0.28351563 12.54378906 -0.31703125 13.56445312 -0.3515625 C19.98270058 -0.43685482 23.7565135 0.23101931 29 4 C30 5 30 5 30.375 8.1875 C29.88091744 13.21067267 28.52093082 14.47906918 25 18 C21.3558226 20.4294516 19.28758728 20.16179575 15 20 C15 19.01 15 18.02 15 17 C15.804375 16.87625 16.60875 16.7525 17.4375 16.625 C18.283125 16.41875 19.12875 16.2125 20 16 C21.1898306 13.6203388 21.13349966 12.08514265 21.125 9.4375 C21.12757813 8.63183594 21.13015625 7.82617188 21.1328125 6.99609375 C21.22011391 5.00057979 21.22011391 5.00057979 20 4 C17.69 3.67 15.38 3.34 13 3 C13 13.23 13 23.46 13 34 C14.65 34.33 16.3 34.66 18 35 C18 35.66 18 36.32 18 37 C12.06 37 6.12 37 0 37 C0 36.01 0 35.02 0 34 C1.65 34 3.3 34 5 34 C5 23.77 5 13.54 5 3 C3.35 3 1.7 3 0 3 C0 2.01 0 1.02 0 0 Z " fill="#171717" transform="translate(266,279)"/>
<path d="M0 0 C0.33 6.6 0.66 13.2 1 20 C2.98 20 4.96 20 7 20 C8.93341947 18.06658053 8.17449133 14.62520879 8.1875 12.0625 C8.20876953 10.16177734 8.20876953 10.16177734 8.23046875 8.22265625 C8.34713697 4.91056001 8.34713697 4.91056001 6 3 C9.61973402 1.68373308 12.09567131 1 16 1 C16 8.26 16 15.52 16 23 C17.32 23 18.64 23 20 23 C20 23.99 20 24.98 20 26 C16.37 26 12.74 26 9 26 C8.67 25.01 8.34 24.02 8 23 C7.4740625 23.7425 7.4740625 23.7425 6.9375 24.5 C3.95719226 26.80733502 1.66462305 26.37909894 -2 26 C-4.70703125 25.05078125 -4.70703125 25.05078125 -7 23 C-7.63399694 19.92325015 -7.46957376 16.93705954 -7.3125 13.8125 C-7.28994141 12.96751953 -7.26738281 12.12253906 -7.24414062 11.25195312 C-7.18524963 9.16721202 -7.09556798 7.08338196 -7 5 C-7.99 5 -8.98 5 -10 5 C-10 4.01 -10 3.02 -10 2 C-6.38026598 0.68373308 -3.90432869 0 0 0 Z " fill="#1D1D1C" transform="translate(309,290)"/>
<path d="M0 0 C2.77740143 2.70965994 2.94783187 3.05529408 3 6.6875 C2.5625 10.5 2.5625 10.5 1.5625 11.5 C-0.79063555 11.57271741 -3.14583668 11.58370868 -5.5 11.5625 C-6.79035156 11.55347656 -8.08070313 11.54445313 -9.41015625 11.53515625 C-10.40917969 11.52355469 -11.40820312 11.51195312 -12.4375 11.5 C-11.7775 13.48 -11.1175 15.46 -10.4375 17.5 C-4.4975 18.49 -4.4975 18.49 1.5625 19.5 C1.5625 20.16 1.5625 20.82 1.5625 21.5 C-3.24114015 24.2852092 -8.03116985 24.48296912 -13.4375 23.5 C-16.52443895 21.72427512 -18.05016858 19.76331804 -19.4375 16.5 C-20.37882257 11.30419589 -20.31940364 7.10049178 -17.75 2.4375 C-12.2711084 -2.15292269 -6.59507378 -2.87785038 0 0 Z " fill="#1A1A1A" transform="translate(393.4375,292.5)"/>
<path d="M0 0 C3.23337844 0.75500207 5.08811355 2.10369712 7.30859375 4.5390625 C8.30859375 6.5390625 8.30859375 6.5390625 8.30859375 12.5390625 C3.02859375 12.5390625 -2.25140625 12.5390625 -7.69140625 12.5390625 C-6.37793015 16.61632323 -6.37793015 16.61632323 -4.69140625 20.5390625 C-0.73140625 20.5390625 3.22859375 20.5390625 7.30859375 20.5390625 C6.64859375 21.8590625 5.98859375 23.1790625 5.30859375 24.5390625 C0.69036674 26.0784715 -3.87379582 26.19009094 -8.69140625 25.5390625 C-11.25390625 23.2890625 -11.25390625 23.2890625 -12.69140625 20.5390625 C-13.10390625 19.9409375 -13.51640625 19.3428125 -13.94140625 18.7265625 C-15.14895467 15.20454629 -15.51499282 12.14468562 -14.69140625 8.5390625 C-11.27039459 2.07104045 -7.32990392 -0.60245786 0 0 Z " fill="#131313" transform="translate(236.69140625,290.4609375)"/>
<path d="M0 0 C0.33 0 0.66 0 1 0 C1.81822196 16.87961594 -1.65324291 33.07348953 -7 49 C-7.37898438 50.1446875 -7.37898438 50.1446875 -7.765625 51.3125 C-17.05997402 79.01330491 -32.80276668 102.99352861 -53 124 C-53.87011719 124.91136719 -54.74023438 125.82273437 -55.63671875 126.76171875 C-61.02401163 132.28432825 -66.62870564 137.61360888 -73 142 C-73.66 142 -74.32 142 -75 142 C-74.01 140.02 -74.01 140.02 -73 138 C-72.34 138 -71.68 138 -71 138 C-71 137.34 -71 136.68 -71 136 C-69.32348633 134.55249023 -69.32348633 134.55249023 -67.01953125 132.87109375 C-49.39988586 119.52976695 -35.80958237 101.94266472 -25.02929688 82.80615234 C-24.04466713 81.07837937 -23.01544558 79.37624844 -21.984375 77.67578125 C-8.39314227 54.21217671 -3.21955566 26.58358921 0 0 Z " fill="#5B5B5B" transform="translate(437,252)"/>
<path d="M0 0 C-1.34421983 4.03265949 -3.95994377 5.33843975 -7.375 7.5625 C-8.04200928 7.99868652 -8.70901855 8.43487305 -9.39624023 8.88427734 C-28.36555905 21.0506405 -48.91679827 29.79601189 -70.9704895 34.56031799 C-72.85130146 34.9677853 -74.72879872 35.39047207 -76.60595703 35.81445312 C-89.27627981 38.3862241 -101.67444638 38.34386784 -114.5625 38.1875 C-116.74933964 38.17241163 -118.93618947 38.15873065 -121.12304688 38.14648438 C-126.4155914 38.11384106 -131.70774619 38.06397767 -137 38 C-135 36 -135 36 -131.421875 35.85229492 C-129.86436679 35.88621966 -128.30704933 35.92967389 -126.75 35.98046875 C-125.02127068 36.01491006 -123.29250831 36.04772193 -121.5637207 36.07910156 C-120.65498199 36.09783325 -119.74624329 36.11656494 -118.80996704 36.13586426 C-101.20654649 36.45934338 -85.11577451 35.47632907 -68 31 C-66.67361756 30.6843413 -65.34684482 30.37031395 -64.01953125 30.05859375 C-43.08261694 24.68582978 -20.9743641 14.68957602 -3.87646484 1.34228516 C-2 0 -2 0 0 0 Z " fill="#545454" transform="translate(362,393)"/>
<path d="M0 0 C0.33 12.21 0.66 24.42 1 37 C-2.3 37 -5.6 37 -9 37 C-8.01 36.505 -8.01 36.505 -7 36 C-7.33 25.44 -7.66 14.88 -8 4 C-8.66 3.67 -9.32 3.34 -10 3 C-10 2.34 -10 1.68 -10 1 C-6.56484998 0.37542727 -3.50935186 0 0 0 Z " fill="#191919" transform="translate(342,278)"/>
<path d="M0 0 C0 2.31 0 4.62 0 7 C-0.66 7 -1.32 7 -2 7 C-2.33 6.01 -2.66 5.02 -3 4 C-5.31 3.67 -7.62 3.34 -10 3 C-10.33 4.32 -10.66 5.64 -11 7 C-10.39671875 7.17015625 -9.7934375 7.3403125 -9.171875 7.515625 C-0.54143646 10.13259669 -0.54143646 10.13259669 2 14 C2.625 16.9375 2.625 16.9375 2 20 C-0.11886707 22.78479672 -0.88110097 23.72030964 -4 25 C-8.36669877 25.40921614 -12.62835173 25.29187563 -17 25 C-17 22.36 -17 19.72 -17 17 C-16.34 17 -15.68 17 -15 17 C-15 18.32 -15 19.64 -15 21 C-11.7 21 -8.4 21 -5 21 C-5 19.68 -5 18.36 -5 17 C-8.96 15.35 -12.92 13.7 -17 12 C-17.59574468 4.85106383 -17.59574468 4.85106383 -15.25 1.5 C-10.27152376 -0.79775826 -5.39530594 -0.30977833 0 0 Z " fill="#131313" transform="translate(367,291)"/>
<path d="M0 0 C0 3.3 0 6.6 0 10 C1.65 10 3.3 10 5 10 C5 10.66 5 11.32 5 12 C3.35 12 1.7 12 0 12 C0 17.61 0 23.22 0 29 C1.65 29 3.3 29 5 29 C4.34 30.32 3.68 31.64 3 33 C-3.50040369 33.36794738 -3.50040369 33.36794738 -5.7121582 31.73901367 C-7.27556408 29.62789707 -7.35164149 28.58943959 -7.29296875 25.98828125 C-7.28330078 25.23095703 -7.27363281 24.47363281 -7.26367188 23.69335938 C-7.23853516 22.90767578 -7.21339844 22.12199219 -7.1875 21.3125 C-7.17396484 20.51521484 -7.16042969 19.71792969 -7.14648438 18.89648438 C-7.11117089 16.93070033 -7.05736447 14.96526418 -7 13 C-7.66 13 -8.32 13 -9 13 C-8.34 9.04 -7.68 5.08 -7 1 C-4 0 -4 0 0 0 Z " fill="#171717" transform="translate(258,283)"/>
<path d="M0 0 C0.33 0 0.66 0 1 0 C1.12528076 0.73412109 1.25056152 1.46824219 1.37963867 2.22460938 C3.78412548 16.15645674 6.32478567 29.64447107 11 43 C11.30421875 44.01191406 11.6084375 45.02382813 11.921875 46.06640625 C14.60392735 54.90071026 18.6953016 62.87113616 23 71 C23.38994141 71.74652832 23.77988281 72.49305664 24.18164062 73.26220703 C29.06464268 82.56870408 34.22742687 91.14282754 40.87109375 99.30078125 C42.82448943 101.77747191 44.44738086 104.25920287 46 107 C45.01 107.495 45.01 107.495 44 108 C20.37841888 78.67018307 -1.37648353 38.84742411 0 0 Z " fill="#646463" transform="translate(58,257)"/>
<path d="M0 0 C3.52054914 -0.11709643 7.04059112 -0.1875469 10.5625 -0.25 C11.55314453 -0.28351563 12.54378906 -0.31703125 13.56445312 -0.3515625 C19.98270058 -0.43685482 23.7565135 0.23101931 29 4 C30 5 30 5 30.375 8.1875 C29.88091744 13.21067267 28.52093082 14.47906918 25 18 C21.3558226 20.4294516 19.28758728 20.16179575 15 20 C15 19.01 15 18.02 15 17 C15.804375 16.87625 16.60875 16.7525 17.4375 16.625 C18.283125 16.41875 19.12875 16.2125 20 16 C21.1898306 13.6203388 21.13349966 12.08514265 21.125 9.4375 C21.12757813 8.63183594 21.13015625 7.82617188 21.1328125 6.99609375 C21.22011391 5.00057979 21.22011391 5.00057979 20 4 C17.67182036 3.63239269 15.3381615 3.29758419 13 3 C13 2.67 13 2.34 13 2 C11.20841511 1.97303635 9.41671527 1.95362083 7.625 1.9375 C6.12839844 1.92009766 6.12839844 1.92009766 4.6015625 1.90234375 C2.01567547 1.81993398 2.01567547 1.81993398 0 3 C0 2.01 0 1.02 0 0 Z " fill="#1F1F1F" transform="translate(266,279)"/>
<path d="M0 0 C1.12320479 3.36961438 0.87259531 4.20948483 -0.109375 7.5078125 C-0.36976562 8.41402344 -0.63015625 9.32023438 -0.8984375 10.25390625 C-1.44997375 12.1134436 -2.00202408 13.97282859 -2.5546875 15.83203125 C-7.07270696 31.55737083 -8.44738751 46.52483 -8.5625 62.8125 C-8.58638871 65.51047604 -8.61447257 68.20813932 -8.65428162 70.90592957 C-8.67842872 72.56525154 -8.69345741 74.22473982 -8.69789124 75.88423157 C-8.75029355 79.72006549 -8.82563256 82.74954532 -11 86 C-12.70626229 56.80807773 -11.18592726 28.71171387 -1 1 C-0.67 0.67 -0.34 0.34 0 0 Z " fill="#757474" transform="translate(68,175)"/>
<path d="M0 0 C2.93423195 1.79646854 4.47205355 2.9441071 6 6 C6.039992 7.99960012 6.04346799 10.00047242 6 12 C3.69 12 1.38 12 -1 12 C-1 11.34 -1 10.68 -1 10 C-3.97 10 -6.94 10 -10 10 C-10 7.66666667 -10 5.33333333 -10 3 C-12.97 5.475 -12.97 5.475 -16 8 C-12.65918626 0.20476793 -8.14652548 -1.34457217 0 0 Z " fill="#1C1C1C" transform="translate(239,291)"/>
<path d="M0 0 C0.33 0 0.66 0 1 0 C2.2729371 26.26022087 -6.25579373 55.15439521 -19 78 C-19.66 77.01 -20.32 76.02 -21 75 C-20.48953125 74.11828125 -20.48953125 74.11828125 -19.96875 73.21875 C-7.80281405 50.69882601 -3.04251158 25.12175171 0 0 Z " fill="#696969" transform="translate(437,252)"/>
<path d="M0 0 C3.14459602 2.65206893 4.50802776 5.82069415 6.25 9.5 C11.12796759 19.5276522 17.1841441 28.45215895 23.984375 37.2734375 C25.83357052 39.77486865 27.45148782 42.30480475 29 45 C28.01 45.495 28.01 45.495 27 46 C17.80969831 34.5888305 9.94584411 22.90531492 3 10 C2.40445313 8.91074219 1.80890625 7.82148438 1.1953125 6.69921875 C0 4 0 4 0 0 Z " fill="#5D5D5D" transform="translate(75,319)"/>
<path d="M0 0 C0.99 0 1.98 0 3 0 C4.71949127 2.32421466 6.21187033 4.58849208 7.6875 7.0625 C8.12231689 7.77825195 8.55713379 8.49400391 9.00512695 9.23144531 C10.3557631 11.47700415 11.68246539 13.73487652 13 16 C13.41636719 16.71462402 13.83273437 17.42924805 14.26171875 18.16552734 C15.4235769 20.18326887 16.56113593 22.21226567 17.6875 24.25 C18.0383667 24.86883057 18.3892334 25.48766113 18.75073242 26.12524414 C21.09691266 30.49209853 21.09691266 30.49209853 20.58129883 33.19433594 C20.38947021 33.79020508 20.1976416 34.38607422 20 35 C19.73896484 34.48727539 19.47792969 33.97455078 19.20898438 33.44628906 C14.42561747 24.09317321 9.63922312 14.95750014 3.59375 6.34765625 C2.1910875 4.28147939 1.04928246 2.26120369 0 0 Z " fill="#7B7B7A" transform="translate(401,127)"/>
<path d="M0 0 C1.65 0 3.3 0 5 0 C5 11.88 5 23.76 5 36 C5.99 36 6.98 36 8 36 C8 36.99 8 37.98 8 39 C3.05 39 -1.9 39 -7 39 C-7 38.01 -7 37.02 -7 36 C-6.484375 36.165 -5.96875 36.33 -5.4375 36.5 C-2.27183913 37.23443483 -2.27183913 37.23443483 4 37 C4 25.12 4 13.24 4 1 C2.68 0.67 1.36 0.34 0 0 Z " fill="#6D6D6C" transform="translate(338,277)"/>
<path d="M0 0 C7.40256709 -0.48541424 7.40256709 -0.48541424 10 1.625 C11.23318878 4.55382336 11.2145758 6.85288821 11 10 C9.02 10 7.04 10 5 10 C4.87625 8.3603125 4.87625 8.3603125 4.75 6.6875 C4.36310791 2.96723336 4.36310791 2.96723336 1.9375 1.0625 C1.298125 0.711875 0.65875 0.36125 0 0 Z " fill="#101010" transform="translate(384,292)"/>
<path d="M0 0 C2.9375 0.1875 2.9375 0.1875 3.9375 1.1875 C3.97830783 3.18708364 3.98004356 5.18795254 3.9375 7.1875 C0.9675 7.1875 -2.0025 7.1875 -5.0625 7.1875 C-5.1875 4.8125 -5.1875 4.8125 -5.0625 2.1875 C-3.0625 0.1875 -3.0625 0.1875 0 0 Z " fill="#6F6F6E" transform="translate(385.0625,293.8125)"/>
<path d="M0 0 C3.0625 0.1875 3.0625 0.1875 5.0625 2.1875 C5.1875 4.8125 5.1875 4.8125 5.0625 7.1875 C2.0925 7.1875 -0.8775 7.1875 -3.9375 7.1875 C-3.98004356 5.18795254 -3.97830783 3.18708364 -3.9375 1.1875 C-2.9375 0.1875 -2.9375 0.1875 0 0 Z " fill="#6E6D6D" transform="translate(232.9375,293.8125)"/>
<path d="M0 0 C0.33 0 0.66 0 1 0 C0.59273571 7.19500239 -1.87649899 12.57139909 -5 19 C-5.77814612 20.72588818 -6.54967059 22.45478748 -7.3125 24.1875 C-7.63863281 24.92355469 -7.96476562 25.65960938 -8.30078125 26.41796875 C-8.53152344 26.94003906 -8.76226562 27.46210938 -9 28 C-9.66 27.01 -10.32 26.02 -11 25 C-10.62488281 24.28457031 -10.24976563 23.56914062 -9.86328125 22.83203125 C-6.04155835 15.39074208 -2.8640581 7.85715053 0 0 Z " fill="#626262" transform="translate(427,302)"/>
<path d="M0 0 C0.66 0 1.32 0 2 0 C2 1.32 2 2.64 2 4 C4.97 4.33 7.94 4.66 11 5 C11 5.66 11 6.32 11 7 C11.66 7.33 12.32 7.66 13 8 C8.71 8 4.42 8 0 8 C0 5.36 0 2.72 0 0 Z " fill="#262626" transform="translate(350,308)"/>
<path d="M0 0 C0.66 0 1.32 0 2 0 C8.34045226 13.85050251 8.34045226 13.85050251 8 21 C6.41806136 18.62709204 5.46910132 16.88037799 4.4921875 14.27734375 C4.22792969 13.57416016 3.96367187 12.87097656 3.69140625 12.14648438 C3.42199219 11.41751953 3.15257812 10.68855469 2.875 9.9375 C2.59785156 9.20466797 2.32070313 8.47183594 2.03515625 7.71679688 C0 2.25796644 0 2.25796644 0 0 Z " fill="#767676" transform="translate(422,163)"/>
<path d="M0 0 C3.96 0 7.92 0 12 0 C12 2.31 12 4.62 12 7 C11.34 7 10.68 7 10 7 C9.67 6.01 9.34 5.02 9 4 C6.90280128 2.97718482 6.90280128 2.97718482 4.4375 2.3125 C3.61121094 2.06113281 2.78492188 1.80976563 1.93359375 1.55078125 C1.29550781 1.36902344 0.65742188 1.18726563 0 1 C0 0.67 0 0.34 0 0 Z " fill="#1E1E1E" transform="translate(355,291)"/>
<path d="M0 0 C0.33 0 0.66 0 1 0 C1 2.31 1 4.62 1 7 C1.66 7 2.32 7 3 7 C3.33 6.01 3.66 5.02 4 4 C3.7834375 5.051875 3.7834375 5.051875 3.5625 6.125 C2.98521625 9.07556141 2.48304859 12.03270151 2 15 C1.34 15 0.68 15 0 15 C0 10.05 0 5.1 0 0 Z " fill="#987271" transform="translate(160,251)"/>
<path d="M0 0 C0.515625 0.165 1.03125 0.33 1.5625 0.5 C6.07708398 1.42606851 10.59363721 1.41003609 15 0 C15 0.99 15 1.98 15 3 C10.05 3 5.1 3 0 3 C0 2.01 0 1.02 0 0 Z " fill="#434343" transform="translate(331,313)"/>
<path d="M0 0 C3.63 0.33 7.26 0.66 11 1 C11 1.66 11 2.32 11 3 C8.83032311 3.95465783 7.43671207 4.14401212 5.17578125 3.3984375 C3.4315257 2.64129615 1.71372869 1.82390802 0 1 C0 0.67 0 0.34 0 0 Z " fill="#2D2D2D" transform="translate(384,311)"/>
<path d="M0 0 C-0.66 1.32 -1.32 2.64 -2 4 C-2.99 4 -3.98 4 -5 4 C-5 3.34 -5 2.68 -5 2 C-6.65 2 -8.3 2 -10 2 C-10 1.67 -10 1.34 -10 1 C-2.25 0 -2.25 0 0 0 Z " fill="#2E2E2E" transform="translate(244,311)"/>
<path d="M0 0 C0.99 0.33 1.98 0.66 3 1 C3 5.29 3 9.58 3 14 C2.67 14 2.34 14 2 14 C2 10.37 2 6.74 2 3 C1.34 3 0.68 3 0 3 C0 2.01 0 1.02 0 0 Z " fill="#A96A68" transform="translate(141,162)"/>
</svg>
