<svg xmlns:svg="http://www.w3.org/2000/svg" xmlns="http://www.w3.org/2000/svg"
     xmlns:sodipodi="http://sodipodi.sourceforge.net/DTD/sodipodi-0.dtd"
     xmlns:inkscape="http://www.inkscape.org/namespaces/inkscape" width="50px" height="50px"
     viewBox="0 0 190.2997 180.30882" version="1.1" class="svg_logo" inkscape:version="1.0.2 (e86c870879, 2021-01-15)"
     sodipodi:docname="parrot.svg">
    <defs>
        <linearGradient id="grad">
            <stop offset="24%"  stop-color="#05EEFF"/>
            <stop offset="81.75%" stop-color="#00FFF0"/>
        </linearGradient>
    </defs>
    <style>
        #circle {
        stroke-dasharray: 2000;
        fill: url(#grad);
        stroke: url(#grad);
        stroke-linecap: butt;
        stroke-linejoin: miter;
        stroke-miterlimit: 10;
        fill-rule: nonzero;
        -webkit-animation: circle 5s alternate;
        animation: circle 5s alternate;
        }

        @-webkit-keyframes circle {
        0% {
        stroke-dashoffset: 2000;
        fill-opacity: 0;
        stroke-width: 1pt;
        }

        20% {
        fill-opacity: 0;
        }

        40% {
        fill-opacity: 0;
        }

        60% {
        fill-opacity: 0.5;
        }

        80% {
        fill-opacity: 0;
        }

        100% {
        stroke-dashoffset: 0;
        fill-opacity: 1;
        stroke-width: 0pt;
        }
        }

        @keyframes circle {
        0% {
        stroke-dashoffset: 2000;
        fill-opacity: 0;
        stroke-width: 1pt;
        }

        20% {
        fill-opacity: 0;
        }

        40% {
        fill-opacity: 0;
        }

        60% {
        fill-opacity: 0.5;
        }

        80% {
        fill-opacity: 0;
        }

        100% {
        stroke-dashoffset: 0;
        fill-opacity: 1;
        stroke-width: 0pt;
        }
        }

        <div id="hacker"></div> {
        stroke-dasharray: 1200;
        fill: #1a1a1a;
        stroke: #1a1a1a;
        stroke-linecap: butt;
        stroke-linejoin: miter;
        stroke-miterlimit: 10;
        fill-rule: nonzero;
        -webkit-animation: hacker<div id="hacker"></div> 7s alternate;
        animation: hacker<div id="hacker"></div> 7s alternate;
        }

        @-webkit-keyframes hacker<div id="hacker"></div> {
        0% {
        stroke-dashoffset: 2500;
        fill-opacity: 0;
        stroke-width: 1pt;
        }

        20% {
        fill-opacity: 0;
        }

        40% {
        fill-opacity: 0;
        }

        60% {
        fill-opacity: 0.5;
        }

        80% {
        fill-opacity: 0;
        }

        100% {
        stroke-dashoffset: 0;
        fill-opacity: 1;
        stroke-width: 0.5pt;
        }
        }

        @keyframes hacker<div id="hacker"></div> {
        0% {
        stroke-dashoffset: 1500;
        fill-opacity: 0;
        stroke-width: 2pt;
        }

        20% {
        fill-opacity: 0;
        }

        40% {
        fill-opacity: 0;
        }

        60% {
        fill-opacity: 0;
        }

        80% {
        fill-opacity: 1;
        }

        100% {
        stroke-dashoffset: 0;
        fill-opacity: 1;
        stroke-width: 0pt;
        }
        }
    </style>
    <g transform="scale(3.9)">
        <g inkscape:label="Layer 1" fill="#55ddff" inkscape:groupmode="layer" id="layer1" transform="scale(0.25) translate(-10, -50)">
            <path id="circle"
                d="M 195.5754,166.8618 A 90.857535,88.954414 52.283172 0 1 90.627326,236.25398 90.857535,88.954414 52.283172 0 1 19.438719,129.30179 90.857535,88.954414 52.283172 0 1 124.38679,59.909617 90.857535,88.954414 52.283172 0 1 195.5754,166.8618 Z"
                inkscape:connector-curvature="0" inkscape:export-xdpi="96" inkscape:export-ydpi="96">
            </path>
        </g>
        <g id="hacker" transform="scale(0.8) translate(7, 5)">
            <path style=" stroke:none;fill-rule:nonzero;fill:rgb(0%,0%,0%);fill-opacity:1;" d="M 31.28125 22.863281 C 32.390625 21.734375 33.78125 20.796875 34.070312 19.125 C 34.359375 17.449219 33.203125 15.761719 32.460938 14.382812 C 31.714844 13.007812 30.988281 11.464844 30.226562 10.15625 C 29.464844 8.847656 28.867188 7.042969 27.832031 6.011719 C 26.796875 4.976562 25.605469 3.285156 24.113281 3.289062 C 22.625 3.292969 21.417969 4.960938 20.398438 6.011719 C 19.375 7.058594 18.761719 8.851562 18.007812 10.160156 C 17.253906 11.46875 16.496094 13.019531 15.777344 14.390625 C 15.058594 15.761719 13.796875 17.5 14.105469 19.179688 C 14.410156 20.855469 15.867188 21.632812 16.871094 22.863281 C 15.128906 23.691406 12.742188 23.667969 11.304688 25.117188 C 9.871094 26.5625 9.488281 28.539062 8.652344 30.328125 C 7.820312 32.117188 7.121094 33.992188 6.375 35.84375 C 5.632812 37.699219 4.175781 39.863281 5.214844 41.996094 C 6.253906 44.125 9.769531 42.910156 11.710938 43.222656 C 11.453125 41.449219 11.203125 39.671875 10.941406 37.898438 C 9.90625 38.015625 8.953125 38.433594 8.011719 38.839844 C 8.113281 38.679688 8.214844 38.527344 8.320312 38.367188 C 8.066406 38.378906 7.769531 38.71875 7.550781 38.523438 C 8.445312 37.660156 9.648438 37.414062 10.785156 37.117188 C 10.828125 35.867188 10.234375 34.316406 10.246094 33.121094 C 10.257812 31.929688 9.34375 30.234375 10.34375 29.304688 C 11.339844 28.378906 13.023438 28.957031 14.332031 28.816406 C 15.636719 28.671875 17.375 28.921875 18.722656 28.816406 C 18.617188 27.714844 18.863281 27.148438 18.722656 25.996094 C 18.578125 24.84375 19.628906 24.847656 19.492188 25.996094 C 19.355469 27.144531 19.59375 27.71875 19.492188 28.816406 C 22.546875 28.816406 25.605469 28.816406 28.660156 28.816406 C 28.585938 27.71875 28.761719 27.058594 28.660156 25.917969 C 28.558594 24.78125 29.65625 24.894531 29.507812 25.996094 C 29.359375 27.097656 29.617188 27.753906 29.507812 28.816406 C 30.875 28.914062 32.734375 28.683594 34.054688 28.816406 C 35.371094 28.945312 37.023438 28.394531 37.964844 29.382812 C 38.902344 30.371094 37.972656 31.984375 37.980469 33.199219 C 37.988281 34.414062 37.433594 35.941406 37.445312 37.195312 C 38.589844 37.316406 39.894531 37.660156 40.601562 38.605469 C 40.335938 38.457031 40.042969 38.367188 39.753906 38.289062 C 39.835938 38.476562 40.054688 38.570312 40.140625 38.761719 C 39.195312 38.453125 38.3125 37.933594 37.289062 37.898438 C 37.117188 39.691406 36.75 41.429688 36.597656 43.222656 C 38.550781 43.054688 42.164062 43.996094 43.074219 41.820312 C 43.984375 39.644531 42.625 37.78125 41.894531 35.882812 C 41.164062 33.980469 40.347656 32.109375 39.523438 30.304688 C 38.695312 28.5 38.382812 26.449219 36.921875 25.039062 C 35.460938 23.628906 33.019531 23.664062 31.28125 22.863281 M 33.207031 19.417969 C 32.6875 17.589844 30.917969 16.339844 29.277344 15.660156 C 29.449219 16.902344 29.164062 18.632812 27.734375 18.324219 C 26.304688 18.015625 25.558594 17.675781 24.113281 17.617188 C 22.671875 17.558594 21.992188 18.050781 20.554688 18.382812 C 19.113281 18.71875 18.800781 16.839844 18.875 15.660156 C 17.277344 16.425781 15.542969 17.597656 15.023438 19.417969 C 14.449219 17.328125 16.285156 15.96875 18.003906 15.089844 C 19.722656 14.207031 22.085938 13.613281 24.113281 13.625 C 26.144531 13.636719 28.496094 14.175781 30.207031 15.105469 C 31.917969 16.035156 33.800781 17.28125 33.207031 19.417969 M 23.34375 27.09375 C 21.164062 25.636719 18.753906 24.214844 17.335938 21.847656 C 19.378906 23.457031 22.039062 24.6875 23.34375 27.09375 M 30.816406 21.847656 C 29.539062 24.179688 27.152344 25.695312 24.960938 26.9375 C 26.308594 24.617188 28.863281 23.511719 30.816406 21.847656 Z M 30.816406 21.847656 "/>
            <path style=" stroke:none;fill-rule:nonzero;fill:rgb(0%,0%,0%);fill-opacity:1;" d="M 35.902344 30.460938 C 34.65625 30.199219 33.246094 30.578125 31.972656 30.460938 C 30.699219 30.339844 29.40625 30.511719 28.121094 30.460938 C 26.835938 30.410156 25.566406 30.476562 24.269531 30.460938 C 22.972656 30.441406 21.648438 30.457031 20.339844 30.460938 C 19.03125 30.464844 17.816406 30.429688 16.488281 30.460938 C 15.160156 30.488281 14.015625 30.386719 12.636719 30.460938 C 11.257812 30.53125 11.804688 32.238281 11.941406 33.277344 C 12.082031 34.320312 12.242188 35.605469 12.402344 36.722656 C 12.566406 37.84375 12.691406 38.984375 12.867188 40.167969 C 13.042969 41.351562 13.085938 42.355469 13.328125 43.613281 C 13.570312 44.875 15.171875 44.5625 16.332031 44.554688 C 17.492188 44.546875 18.964844 44.5625 20.183594 44.554688 C 21.40625 44.546875 22.804688 44.5625 24.039062 44.554688 C 25.269531 44.546875 26.761719 44.574219 27.96875 44.554688 C 29.171875 44.535156 30.703125 44.59375 31.820312 44.554688 C 32.9375 44.515625 34.539062 44.933594 34.90625 43.777344 C 35.273438 42.621094 35.140625 41.378906 35.367188 40.253906 C 35.597656 39.128906 35.695312 37.882812 35.84375 36.820312 C 35.992188 35.753906 36.238281 34.324219 36.304688 33.375 C 36.371094 32.421875 37.117188 30.714844 35.902344 30.460938 M 24.347656 34.453125 C 26.261719 34.695312 25.84375 37.835938 23.882812 37.507812 C 21.921875 37.175781 22.40625 34.207031 24.347656 34.453125 Z M 24.347656 34.453125 "/>
        </g>
    </g>
</svg>